<svg xmlns="http://www.w3.org/2000/svg" xmlns:xlink="http://www.w3.org/1999/xlink" width="17.47813034057657" height="21.32956552505493" viewBox="116.6091308593746 807.3784174919128 17.47813034057657 21.32956552505493"><path d="M 6.18476676940918 23.32956504821777 L 19.29336357116699 23.32956504821777 C 20.49997901916504 23.32956504821777 21.47813034057617 22.37460708618164 21.47813034057617 21.19660949707031 L 21.47813034057617 4.132956504821777 C 21.47813034057617 2.954956531524658 20.49997711181641 1.999999523162842 19.29336357116699 1.999999523162842 L 6.18476676940918 1.999999523162842 C 4.978153228759766 1.999999523162842 3.999999284744263 2.954957008361816 4 4.132956981658936 L 4 21.19660949707031 C 4 22.37460708618164 4.978153228759766 23.32956504821777 6.184766292572021 23.32956504821777 Z M 9.461915016174316 20.13013076782227 L 7.277149677276611 20.13013076782227 L 7.277149677276611 17.99717330932617 L 9.461915016174316 17.99717330932617 L 9.461915016174316 20.13013076782227 Z M 9.461915016174316 15.86421775817871 L 7.277149677276611 15.86421775817871 L 7.277149677276611 13.73126029968262 L 9.461915016174316 13.73126029968262 L 9.461915016174316 15.86421775817871 Z M 9.461915016174316 11.59830379486084 L 7.277149677276611 11.59830379486084 L 7.277149677276611 9.465347290039062 L 9.461915016174316 9.465347290039062 L 9.461915016174316 11.59830379486084 Z M 13.83144855499268 20.13013076782227 L 11.64668083190918 20.13013076782227 L 11.64668083190918 17.99717330932617 L 13.83144855499268 17.99717330932617 L 13.83144855499268 20.13013076782227 Z M 13.83144855499268 15.86421775817871 L 11.64668083190918 15.86421775817871 L 11.64668083190918 13.73126029968262 L 13.83144855499268 13.73126029968262 L 13.83144855499268 15.86421775817871 Z M 13.83144855499268 11.59830379486084 L 11.64668083190918 11.59830379486084 L 11.64668083190918 9.465347290039062 L 13.83144855499268 9.465347290039062 L 13.83144855499268 11.59830379486084 Z M 18.20098114013672 20.13013076782227 L 16.01621437072754 20.13013076782227 L 16.01621437072754 13.73126029968262 L 18.20098114013672 13.73126029968262 L 18.20098114013672 20.13013076782227 Z M 18.20098114013672 11.59830379486084 L 16.01621437072754 11.59830379486084 L 16.01621437072754 9.465347290039062 L 18.20098114013672 9.465347290039062 L 18.20098114013672 11.59830379486084 Z M 6.18476676940918 4.132956504821777 L 19.29336357116699 4.132956504821777 L 19.29336357116699 7.332390785217285 L 6.18476676940918 7.332390785217285 L 6.18476676940918 4.132956504821777 Z" transform="matrix(1,0,0,1,112.609130859375,805.37841796875)" fill="#fff3d6" fill-rule="evenodd"/></svg>