<svg xmlns="http://www.w3.org/2000/svg" width="107.13" height="98.703" viewBox="0 0 107.13 98.703">
  <defs>
    <style>
      .cls-1 {
        fill: #fff4d6;
      }
    </style>
  </defs>
  <g id="Capa_1" data-name="Capa 1" transform="translate(-7.769 0.01)">
    <g id="Grupo_31" data-name="Grupo 31" transform="translate(7.769 -0.01)">
      <g id="Grupo_30" data-name="Grupo 30">
        <path id="Trazado_57" data-name="Trazado 57" class="cls-1" d="M52.258,0l62.074,78.19V0h19.022c-1.134.1-9.132.885-13.636,7.509a16.11,16.11,0,0,0-2.736,8.745c-.216,26.919-.875,78.22-.647,80.762s-2.489,1.444-2.489,1.444L45.252,15.447V60.818h-2V12.066c-2.428-2.067-4.51-4.824-7.1-6.672C32.638,2.881,29.225,2.5,26.23,0H52.264Z" transform="translate(-26.224 0.006)"/>
        <path id="Trazado_58" data-name="Trazado 58" class="cls-1" d="M40.838,30.815v40.06c0,2.614,4.159,13.753,5.614,16.587,10.664,20.764,34.446,27.78,54.723,15.756l.493,2.406C81.219,115.338,52.007,112.07,37,94.021,23.294,77.535,22.516,48,37.969,32.282c.927-.945,1.242-1.824,2.875-1.467Z" transform="translate(-26.354 -12.469)"/>
        <path id="Trazado_59" data-name="Trazado 59" class="cls-1" d="M130.7,0V33.783c-2.976.475-1.515-.8-1.937-2.365C123.046,10.506,103.821-.42,83.431,8.266a1.124,1.124,0,0,1-.7.149c-.814-.125-1.313-1.586-1.277-2.133.137-2.067,9.007-5,18.423-3.933,10.89,1.236,20.057,7.545,25.451,5.389a9.383,9.383,0,0,0,2.953-1.949,9.3,9.3,0,0,0,2.406-5.8Z" transform="translate(-46.31 0.01)"/>
        <path id="Trazado_60" data-name="Trazado 60" class="cls-1" d="M59.044,158.511H26.22q7.049-5.294,14.1-10.581Q49.681,153.223,59.044,158.511Z" transform="translate(-26.22 -60.038)"/>
      </g>
    </g>
  </g>
</svg>
