<svg id="_9023828_shopping_cart_simple_fill_icon" data-name="9023828_shopping_cart_simple_fill_icon" xmlns="http://www.w3.org/2000/svg" width="28" height="28" viewBox="0 0 28 28">
  <defs>
    <style>
      .cls-1 {
        fill: none;
      }

      .cls-2 {
        fill: #fff3d6;
      }
    </style>
  </defs>
  <rect id="Rectángulo_26" data-name="Rectángulo 26" class="cls-1" width="28" height="28"/>
  <path id="Trazado_52" data-name="Trazado 52" class="cls-2" d="M10.416,44.832A1.736,1.736,0,1,1,8.68,43.1,1.736,1.736,0,0,1,10.416,44.832ZM19.964,43.1A1.736,1.736,0,1,0,21.7,44.832,1.736,1.736,0,0,0,19.964,43.1Zm4.785-14.409a.879.879,0,0,0-.694-.347H5.241l-.879-3.081A1.747,1.747,0,0,0,2.691,24H.868a.868.868,0,1,0,0,1.736H2.691l1.063,3.7v.022L6.619,39.472A2.615,2.615,0,0,0,9.125,41.36H19.519a2.615,2.615,0,0,0,2.506-1.888L24.89,29.447A.868.868,0,0,0,24.749,28.687Z" transform="translate(0 -21.396)"/>
</svg>
