<svg xmlns="http://www.w3.org/2000/svg" xmlns:xlink="http://www.w3.org/1999/xlink" width="23.408575057983455" height="23.543048858642578" viewBox="181.29565429687494 805.1650390625 23.408575057983455 23.543048858642578"><g transform="matrix(1,0,0,1,181.295654296875,805.1650390625)"><g><path d="M 10.934889793396 6.619998931884766 C 8.86112117767334 6.619998931884766 7.180000305175781 8.301121711730957 7.180000305175781 10.3748893737793 C 7.180000305175781 12.44865608215332 8.86112117767334 14.1297779083252 10.934889793396 14.1297779083252 C 13.00865840911865 14.1297779083252 14.68977928161621 12.44865608215332 14.68977928161621 10.3748893737793 C 14.68977928161621 8.301119804382324 13.00865840911865 6.619998931884766 10.934889793396 6.619998931884766 Z M 10.934889793396 13.08502864837646 C 9.833637237548828 13.08502960205078 8.840995788574219 12.42108821868896 8.420523643493652 11.403244972229 C 8.000048637390137 10.38538074493408 8.23470401763916 9.214445114135742 9.01490306854248 8.437211990356445 C 9.795103073120117 7.659979820251465 10.9669246673584 7.429786682128906 11.98316192626953 7.8541259765625 C 12.99939727783203 8.27846622467041 13.65956020355225 9.273623466491699 13.65537357330322 10.37488746643066 C 13.64967727661133 11.87332916259766 12.43334197998047 13.08504104614258 10.934889793396 13.08502960205078 Z" transform="matrix(1,0,0,1,0.2470250278711319,0.22775933146476746)" fill="#fff3d6" fill-rule="evenodd"/><path d="M 22.47761154174805 8.151108741760254 C 22.97629928588867 8.145442008972168 23.37757682800293 7.73955249786377 23.37754249572754 7.240832328796387 L 23.37754440307617 5.813353538513184 C 23.37195205688477 5.318668365478516 22.97229766845703 4.919012546539307 22.47761154174805 4.913421630859375 L 22.37417030334473 4.913422107696533 L 22.37417030334473 2.068809270858765 C 22.37417030334473 0.9262373447418213 21.44793510437012 0 20.30536079406738 0 L 2.068809270858765 0 C 0.9262373447418213 0 -2.466212833951431e-07 0.9262378215789795 0 2.068809509277344 L 0 19.14682960510254 C 0 20.28940010070801 0.9262373447418213 21.21563911437988 2.068808794021606 21.21563911437988 L 3.103214025497437 21.21563911437988 L 3.103214025497437 22.63277435302734 C 3.103214025497437 23.1355037689209 3.510757684707642 23.54304885864258 4.013488292694092 23.54304885864258 L 7.458057403564453 23.54304885864258 C 7.956836223602295 23.54304885864258 8.362699508666992 23.14174461364746 8.368334770202637 22.64305686950684 L 8.36833381652832 21.20529365539551 L 14.01618194580078 21.20529365539551 L 14.01618194580078 22.6224308013916 C 14.01618194580078 23.12515640258789 14.42372703552246 23.53270149230957 14.92645740509033 23.53270149230957 L 18.38136863708496 23.53270530700684 C 18.88014793395996 23.53270149230957 19.28601264953613 23.13140106201172 19.29164886474609 22.63271331787109 L 19.29164505004883 21.20529365539551 L 20.3260498046875 21.20529365539551 C 21.46862411499023 21.20529365539551 22.39485931396484 20.27905654907227 22.39485931396484 19.1364860534668 L 22.39485931396484 16.29187202453613 L 22.49830055236816 16.29187202453613 C 22.99707794189453 16.29187202453613 23.40293884277344 15.89056968688965 23.4085750579834 15.39188003540039 L 23.4085750579834 13.96446132659912 C 23.40298271179199 13.46977710723877 23.00332450866699 13.07011985778809 22.50864028930664 13.06453037261963 L 22.40520095825195 13.06453037261963 L 22.40520095825195 8.151108741760254 L 22.47761154174805 8.151108741760254 Z M 22.35348129272461 14.08859157562256 L 22.35348129272461 15.25746726989746 L 18.08139228820801 15.25746726989746 L 18.08139228820801 14.08859157562256 L 22.35348129272461 14.08859157562256 Z M 17.95726203918457 13.05418586730957 C 17.45857238769531 13.05985260009766 17.05729675292969 13.46574306488037 17.05733108520508 13.96446132659912 L 17.05733108520508 15.39194011688232 C 17.05733108520508 15.89467334747314 17.46487617492676 16.30221939086914 17.96760559082031 16.30221748352051 L 18.61928176879883 16.30221748352051 L 18.61928176879883 17.58487892150879 L 3.775577068328857 17.58487892150879 L 3.775577068328857 3.620416164398193 L 18.61928176879883 3.620416164398193 L 18.61928176879883 4.913422107696533 L 17.97795104980469 4.913422107696533 C 17.47926330566406 4.919089317321777 17.07798767089844 5.324978351593018 17.0780200958252 5.823698043823242 L 17.0780200958252 7.240832328796387 C 17.0780200958252 7.743565082550049 17.48556327819824 8.151108741760254 17.98829460144043 8.151108741760254 L 18.61928176879883 8.151108741760254 L 18.61928176879883 13.05418586730957 L 17.95726203918457 13.05418586730957 Z M 18.09173393249512 7.116703987121582 L 18.09173393249512 5.947826385498047 L 22.3431396484375 5.947826385498047 L 22.3431396484375 7.116703987121582 L 18.09173393249512 7.116703987121582 Z M 7.323585033416748 22.48795509338379 L 4.137618541717529 22.48795509338379 L 4.137618541717529 21.20529365539551 L 7.323585033416748 21.20529365539551 L 7.323585033416748 22.48795509338379 Z M 18.24689674377441 22.48795509338379 L 15.04024314880371 22.48795509338379 L 15.04024314880371 21.20529365539551 L 18.23655128479004 21.20529365539551 L 18.24689674377441 22.48795509338379 Z M 21.35011100769043 19.14682960510254 C 21.35011100769043 19.71811485290527 20.88699150085449 20.18123435974121 20.31570625305176 20.18123435974121 L 2.068809270858765 20.18123435974121 C 1.497523427009583 20.18123435974121 1.034404754638672 19.71811485290527 1.034404635429382 19.14682960510254 L 1.034404635429382 2.068809270858765 C 1.034404635429382 1.497523427009583 1.497523427009583 1.034404516220093 2.068809509277344 1.034404635429382 L 20.31570625305176 1.034404635429382 C 20.88699150085449 1.034404635429382 21.35011100769043 1.497523427009583 21.35011100769043 2.068809270858765 L 21.35011100769043 4.913422107696533 L 19.65368843078613 4.913422107696533 L 19.65368843078613 3.103214025497437 C 19.65368843078613 2.817570924758911 19.42212677001953 2.586011409759521 19.1364860534668 2.586011409759521 L 3.258374691009521 2.586011409759521 C 2.972731590270996 2.586011409759521 2.741172313690186 2.817570924758911 2.741172313690186 3.103214025497437 L 2.741172313690186 18.10208129882812 C 2.741172313690186 18.38772392272949 2.972731590270996 18.61928176879883 3.258374691009521 18.61928176879883 L 19.11579704284668 18.61928176879883 C 19.40143966674805 18.61928176879883 19.63299942016602 18.38772392272949 19.63299942016602 18.10208129882812 L 19.63299942016602 16.29187202453613 L 21.33976554870605 16.29187202453613 L 21.35011100769043 19.14682960510254 Z M 21.35011100769043 13.05418586730957 L 19.65368843078613 13.05418586730957 L 19.65368843078613 8.151108741760254 L 21.36045455932617 8.151108741760254 L 21.35011100769043 13.05418586730957 Z" fill="#fff3d6" fill-rule="evenodd"/></g></g></svg>