<svg xmlns="http://www.w3.org/2000/svg" xmlns:xlink="http://www.w3.org/1999/xlink" width="22.7080078125" height="22.7080078125" viewBox="257.27001953125 805.9998779296875 22.7080078125 22.7080078125"><g transform="matrix(1,0,0,1,1052.77001953125,-1467.0001220703125)"><path d="M 40.20800399780273 35.35400390625 C 40.20800399780273 29.08335876464844 35.1246452331543 24 28.85400390625 24 C 22.58336067199707 24 17.5 29.08335876464844 17.5 35.35400390625 C 17.5 41.6246452331543 22.58336067199707 46.7080078125 28.85400390625 46.7080078125 C 35.12285995483398 46.70368957519531 40.20368957519531 41.62285614013672 40.2080078125 35.35400390625 Z M 19.06606864929199 35.35400390625 C 19.06606864929199 29.94827651977539 23.44827842712402 25.56606674194336 28.85400772094727 25.56607055664062 C 34.25973129272461 25.56607055664062 38.64193725585938 29.94828033447266 38.64193725585938 35.35400772094727 C 38.64193725585938 40.75973129272461 34.25972747802734 45.14193725585938 28.85400199890137 45.14193725585938 C 23.45185279846191 45.13330841064453 19.07469367980957 40.75615310668945 19.06606864929199 35.35400390625 Z" transform="matrix(1,0,0,1,-813,2249)" fill="#fff3d6" fill-rule="evenodd"/><path d="M 37.94372940063477 36.22186660766602 C 37.94373321533203 31.68105888366699 34.26268005371094 28.00000381469727 29.72187042236328 28.00000381469727 C 25.18105888366699 28.00000381469727 21.50000381469727 31.68105506896973 21.50000381469727 36.22186660766602 C 21.50000381469727 40.76267623901367 25.18105697631836 44.44373321533203 29.72186470031738 44.44373321533203 C 34.26088714599609 44.43941497802734 37.93941497802734 40.76088714599609 37.94373321533203 36.22186660766602 Z M 23.06606864929199 36.22186660766602 C 23.06606864929199 32.54597091674805 26.04597091674805 29.56607055664062 29.72186470031738 29.56607055664062 C 33.39775848388672 29.56607055664062 36.37766265869141 32.54597091674805 36.37766265869141 36.22186660766602 C 36.37766265869141 39.89775848388672 33.39775848388672 42.87765884399414 29.72186279296875 42.87765884399414 C 26.04775619506836 42.87334442138672 23.07038307189941 39.89596939086914 23.06606864929199 36.22186279296875 Z" transform="matrix(1,0,0,1,-813.8678588867188,2248.132080078125)" fill="#fff3d6" fill-rule="evenodd"/><path d="M 32.09299087524414 41.39641571044922 L 32.09299087524414 41.18499374389648 C 33.31631469726562 40.81568908691406 34.08008575439453 39.60098266601562 33.88281631469727 38.33845138549805 C 33.685546875 37.07592010498047 32.58762741088867 36.152099609375 31.30995559692383 36.1735725402832 L 31.30995559692383 36.1735725402832 C 31.12394905090332 36.18429183959961 30.94166946411133 36.11835479736328 30.80556106567383 35.99112319946289 C 30.66945266723633 35.86389541625977 30.59139442443848 35.68646621704102 30.58956146240234 35.50016403198242 C 30.59651374816895 35.17525100708008 30.83452033996582 34.90166091918945 31.15533828735352 34.84979248046875 C 31.47615814208984 34.79792404174805 31.78824996948242 34.98257827758789 31.89723205566406 35.28873825073242 C 32.05892944335938 35.66086959838867 32.47809982299805 35.84784317016602 32.86301803588867 35.71953582763672 C 33.2479362487793 35.59123229980469 33.47108840942383 35.19015121459961 33.37716674804688 34.79542922973633 C 33.17229843139648 34.17511367797852 32.70148849487305 33.678466796875 32.09299087524414 33.44078063964844 L 32.09299087524414 32.78303527832031 C 32.09299087524414 32.3505744934082 31.74241256713867 32 31.30995559692383 32 C 30.87749862670898 32 30.52692031860352 32.3505744934082 30.52692031860352 32.78303527832031 L 30.52692031860352 33.40163040161133 C 29.48176765441895 33.76451873779297 28.86026763916016 34.83837890625 29.0662899017334 35.92538452148438 C 29.27231025695801 37.01239776611328 30.24364852905273 37.78436279296875 31.34910583496094 37.73964691162109 C 31.87770843505859 37.73743438720703 32.31716156005859 38.1461296081543 32.35324478149414 38.67350387573242 C 32.38932418823242 39.20087814331055 32.00963592529297 39.66561508178711 31.48565673828125 39.73542404174805 C 30.9616813659668 39.80523300170898 30.47356224060059 39.45611190795898 30.37031555175781 38.93768310546875 C 30.28024864196777 38.51700592041016 29.86766242980957 38.24777603149414 29.44633293151855 38.33475112915039 C 29.02247047424316 38.42116165161133 28.74898147583008 38.83490371704102 28.8355655670166 39.25873184204102 C 29.02365112304688 40.14896011352539 29.66607666015625 40.87466430664062 30.52692031860352 41.16933441162109 L 30.52692031860352 41.39641571044922 C 30.52692031860352 41.82887268066406 30.87749862670898 42.17945098876953 31.30995559692383 42.17945098876953 C 31.74241256713867 42.17945098876953 32.09299087524414 41.82887268066406 32.09299087524414 41.39641571044922 Z" transform="matrix(1,0,0,1,-815.4559326171875,2247.26416015625)" fill="#fff3d6" fill-rule="evenodd"/></g></svg>