<svg xmlns="http://www.w3.org/2000/svg" width="311" height="28" viewBox="0 0 311 28">
  <defs>
    <style>
      .cls-1 {
        fill: #fff3d6;
      }

      .cls-2 {
        fill: none;
      }
    </style>
  </defs>
  <g id="Grupo_44" data-name="Grupo 44" transform="translate(-46 -804)">
    <path id="_8723112_home_icon" data-name="8723112_home_icon" class="cls-1" d="M1,8.266v12.4H8.143V15.154a2.859,2.859,0,0,1,5.715,0v5.511H21V8.266L11,0Z" transform="translate(45 807.021)"/>
    <path id="_9055209_bxs_calculator_icon" data-name="9055209_bxs_calculator_icon" class="cls-1" d="M6.185,23.33H19.293A2.159,2.159,0,0,0,21.478,21.2V4.133A2.159,2.159,0,0,0,19.293,2H6.185A2.159,2.159,0,0,0,4,4.133V21.2A2.159,2.159,0,0,0,6.185,23.33Zm3.277-3.2H7.277V18H9.462Zm0-4.266H7.277V13.731H9.462Zm0-4.266H7.277V9.465H9.462Zm4.37,8.532H11.647V18h2.185Zm0-4.266H11.647V13.731h2.185Zm0-4.266H11.647V9.465h2.185ZM18.2,20.13H16.016v-6.4H18.2Zm0-8.532H16.016V9.465H18.2ZM6.185,4.133H19.293v3.2H6.185Z" transform="translate(112.609 805.378)"/>
    <g id="Grupo_2" data-name="Grupo 2" transform="translate(1052.77 -1467)">
      <path id="Trazado_13" data-name="Trazado 13" class="cls-1" d="M40.208,35.354A11.354,11.354,0,1,0,28.854,46.708,11.354,11.354,0,0,0,40.208,35.354Zm-21.142,0a9.788,9.788,0,1,1,9.788,9.788A9.788,9.788,0,0,1,19.066,35.354Z" transform="translate(-813 2249)"/>
      <path id="Trazado_14" data-name="Trazado 14" class="cls-1" d="M37.944,36.222a8.222,8.222,0,1,0-8.222,8.222,8.222,8.222,0,0,0,8.222-8.222Zm-14.878,0a6.656,6.656,0,1,1,6.656,6.656,6.656,6.656,0,0,1-6.656-6.656Z" transform="translate(-813.868 2248.132)"/>
      <path id="Trazado_15" data-name="Trazado 15" class="cls-1" d="M32.093,41.4v-.211a2.561,2.561,0,0,0-.783-5.011h0a.681.681,0,0,1-.72-.673.673.673,0,0,1,1.308-.211.783.783,0,0,0,1.48-.493,2.192,2.192,0,0,0-1.284-1.355v-.658a.783.783,0,0,0-1.566,0V33.4a2.232,2.232,0,0,0,.822,4.338,1,1,0,1,1-.979,1.2.784.784,0,0,0-1.535.321,2.584,2.584,0,0,0,1.691,1.911V41.4a.783.783,0,0,0,1.566,0Z" transform="translate(-815.456 2247.264)"/>
    </g>
    <g id="_9023828_shopping_cart_simple_fill_icon" data-name="9023828_shopping_cart_simple_fill_icon" transform="translate(329 804)">
      <rect id="Rectángulo_26" data-name="Rectángulo 26" class="cls-2" width="28" height="28"/>
      <path id="Trazado_52" data-name="Trazado 52" class="cls-1" d="M10.416,44.832A1.736,1.736,0,1,1,8.68,43.1,1.736,1.736,0,0,1,10.416,44.832ZM19.964,43.1A1.736,1.736,0,1,0,21.7,44.832,1.736,1.736,0,0,0,19.964,43.1Zm4.785-14.409a.879.879,0,0,0-.694-.347H5.241l-.879-3.081A1.747,1.747,0,0,0,2.691,24H.868a.868.868,0,1,0,0,1.736H2.691l1.063,3.7v.022L6.619,39.472A2.615,2.615,0,0,0,9.125,41.36H19.519a2.615,2.615,0,0,0,2.506-1.888L24.89,29.447A.868.868,0,0,0,24.749,28.687Z" transform="translate(0 -21.396)"/>
    </g>
    <g id="Camada_2" data-name="Camada 2" transform="translate(181.296 805.165)">
      <g id="Camada_1" data-name="Camada 1">
        <path id="Trazado_65" data-name="Trazado 65" class="cls-1" d="M10.935,6.62a3.755,3.755,0,1,0,3.755,3.755A3.755,3.755,0,0,0,10.935,6.62Zm0,6.465a2.72,2.72,0,1,1,2.72-2.71,2.72,2.72,0,0,1-2.72,2.71Z" transform="translate(0.247 0.228)"/>
        <path id="Trazado_66" data-name="Trazado 66" class="cls-1" d="M22.478,8.151a.91.91,0,0,0,.9-.91V5.813a.91.91,0,0,0-.9-.9h-.1V2.069A2.069,2.069,0,0,0,20.305,0H2.069A2.069,2.069,0,0,0,0,2.069V19.147a2.069,2.069,0,0,0,2.069,2.069H3.1v1.417a.91.91,0,0,0,.91.91H7.458a.91.91,0,0,0,.91-.9V21.205h5.648v1.417a.91.91,0,0,0,.91.91h3.455a.91.91,0,0,0,.91-.9V21.205h1.034a2.069,2.069,0,0,0,2.069-2.069V16.292h.1a.91.91,0,0,0,.91-.9V13.964a.91.91,0,0,0-.9-.9h-.1V8.151Zm-.124,5.937v1.169H18.081V14.089Zm-4.4-1.034a.91.91,0,0,0-.9.91v1.427a.91.91,0,0,0,.91.91h.652v1.283H3.776V3.62H18.619V4.913h-.641a.91.91,0,0,0-.9.91V7.241a.91.91,0,0,0,.91.91h.631v4.9Zm.134-5.937V5.948h4.251V7.117ZM7.324,22.488H4.138V21.205H7.324Zm10.923,0H15.04V21.205h3.2Zm3.1-3.341a1.034,1.034,0,0,1-1.034,1.034H2.069a1.034,1.034,0,0,1-1.034-1.034V2.069A1.034,1.034,0,0,1,2.069,1.034H20.316A1.034,1.034,0,0,1,21.35,2.069V4.913h-1.7V3.1a.517.517,0,0,0-.517-.517H3.258a.517.517,0,0,0-.517.517v15a.517.517,0,0,0,.517.517H19.116a.517.517,0,0,0,.517-.517v-1.81H21.34Zm0-6.093h-1.7v-4.9H21.36Z"/>
      </g>
    </g>
  </g>
</svg>
