<svg xmlns="http://www.w3.org/2000/svg" xmlns:xlink="http://www.w3.org/1999/xlink" width="24.923176949858604" height="22.568050384521477" viewBox="0 2.604005813598633 24.923176949858604 22.568050384521477"><path d="M 10.41602325439453 44.83204650878906 C 10.41602325439453 45.79081726074219 9.638788223266602 46.56805038452148 8.680019378662109 46.56805038452148 C 7.721251010894775 46.56805038452148 6.944015502929688 45.79081344604492 6.944015502929688 44.83204650878906 C 6.944015502929688 43.87327575683594 7.721251010894775 43.09604263305664 8.680019378662109 43.09604263305664 C 9.638788223266602 43.09604263305664 10.41602325439453 43.8732795715332 10.41602325439453 44.83204650878906 Z M 19.96404457092285 43.09604263305664 C 19.00527572631836 43.09604263305664 18.22804069519043 43.8732795715332 18.22804069519043 44.83204650878906 C 18.22804069519043 45.79081726074219 19.00527763366699 46.56805038452148 19.96404457092285 46.56805038452148 C 20.92281341552734 46.56805038452148 21.70004844665527 45.79081344604492 21.70004844665527 44.83204650878906 C 21.70004844665527 43.87327575683594 20.92281150817871 43.09604263305664 19.96404457092285 43.09604263305664 Z M 24.74890518188477 28.68721008300781 C 24.58387565612793 28.469970703125 24.32731437683105 28.34169006347656 24.05450439453125 28.34000778198242 L 5.240561485290527 28.34000968933105 L 4.361709594726562 25.25860214233398 C 4.145274639129639 24.51509094238281 3.465174674987793 24.0028076171875 2.690805912017822 24 L 0.8680019378662109 24 C 0.3886176943778992 24 0 24.38861846923828 0 24.86800193786621 C 0 25.34738540649414 0.3886177241802216 25.73600387573242 0.8680019378662109 25.73600387573242 L 2.690805912017822 25.73600387573242 L 3.754108190536499 29.43586158752441 L 3.754108190536499 29.45756149291992 L 6.618515014648438 39.47213745117188 C 6.94160270690918 40.58848190307617 7.962710857391357 41.35762786865234 9.124869346618652 41.36003875732422 L 19.51919364929199 41.36003875732422 C 20.68135261535645 41.35762786865234 21.70246124267578 40.58848190307617 22.02554893493652 39.47213363647461 L 24.88995552062988 29.44671249389648 C 24.96439170837402 29.18542289733887 24.91219520568848 28.90435028076172 24.74890518188477 28.68721008300781 Z" transform="matrix(1,0,0,1,0,-21.395994186401367)" fill="#fff3d6" fill-rule="evenodd"/></svg>