<svg xmlns="http://www.w3.org/2000/svg" width="21" height="21" viewBox="0 0 21 21">
  <defs>
    <style>
      .cls-1 {
        fill: none;
      }

      .cls-2 {
        fill: #fff3d6;
      }
    </style>
  </defs>
  <g id="Settings" transform="translate(-0.006 0)">
    <rect id="Rectangle_193" data-name="Rectangle 193" class="cls-1" width="20.185" height="21" transform="translate(0.006 0)"/>
    <path id="Path_104" data-name="Path 104" class="cls-2" d="M269.578,12.814a2.563,2.563,0,1,0-2.554-2.563A2.566,2.566,0,0,0,269.578,12.814Zm-5.236-8.2a7.2,7.2,0,0,1,3.065-1.666L268.429,0h2.554L272,2.947a8.909,8.909,0,0,1,3.065,1.666l3.065-.641,1.277,2.306-2.043,2.306a7.331,7.331,0,0,1,.128,1.666c0,.513-.128,1.153-.128,1.666l2.043,2.306-1.277,2.306-3.065-.641A7.2,7.2,0,0,1,272,17.555L270.983,20.5h-2.554l-1.022-2.947a8.909,8.909,0,0,1-3.065-1.666l-3.065.641L260,14.223l2.043-2.306a7.328,7.328,0,0,1-.128-1.666c0-.513.128-1.153.128-1.666L260,6.279l1.277-2.306Z" transform="translate(-258.406)"/>
  </g>
</svg>
